<svg xmlns="http://www.w3.org/2000/svg" viewBox="0 0 1000 588" fill="none" preserveAspectRatio="none">
  <g opacity=".54" stroke="rgba(20,44,37,.145)" stroke-width="1.05">
    <path d="M-55 100C78 40 183 43 304 96c120 53 193 91 314 50 122-42 179-92 291-48 62 24 105 49 151 29"/>
    <path d="M-63 138C72 74 190 75 318 130c133 57 201 99 330 54 120-42 178-91 299-45 60 23 106 48 151 31"/>
    <path d="M-70 178C68 112 202 104 335 160c129 54 205 101 338 56 128-44 189-96 315-47 63 24 110 51 156 35"/>
    <path d="M-74 221C58 153 192 141 340 189c140 45 216 101 355 60 134-40 199-95 331-45 68 26 117 55 163 42"/>
    <path d="M-64 265C55 201 188 176 337 218c150 42 230 103 375 64 134-36 197-92 327-48 74 25 123 59 176 50"/>
    <path d="M-48 312C64 256 185 218 337 248c154 30 237 94 386 66 135-26 193-80 316-43 71 21 124 54 181 51"/>
    <path d="M-29 359C78 311 194 267 346 281c145 14 244 74 386 60 124-12 185-58 297-29 68 18 123 43 182 44"/>
    <path d="M-8 407C101 370 213 319 361 319c142 0 239 49 379 46 119-3 174-39 279-19 66 13 119 32 179 32"/>
    <path d="M20 459C127 425 238 381 376 366c129-14 222 21 350 30 114 8 166-18 267-8 62 6 115 19 172 19"/>
  </g>
  <g opacity=".42" stroke="rgba(20,44,37,.115)" stroke-width=".95">
    <path d="M62 248C117 195 183 160 259 157c82-3 154 27 194 80 38 50 32 112-25 153-59 42-152 49-235 19C111 380 62 323 62 248Z"/>
    <path d="M98 249C147 204 200 182 263 181c67 0 125 25 158 66 31 39 26 87-20 119-49 35-122 40-187 18C143 360 99 312 98 249Z"/>
    <path d="M137 250C179 216 217 201 265 202c50 2 94 21 119 51 24 29 20 63-15 87-38 26-93 30-143 14C174 337 137 300 137 250Z"/>
    <path d="M638 315C684 262 753 226 832 229c80 3 139 46 145 103 7 60-43 112-123 130-81 18-167-6-207-57-21-27-25-58-9-90Z"/>
    <path d="M669 319C712 278 765 254 826 256c63 2 111 34 116 78 6 47-34 88-99 101-66 14-134-5-166-45-17-22-20-48-8-71Z"/>
    <path d="M701 324C735 293 775 279 823 282c47 3 84 27 88 61 4 35-26 64-75 74-50 10-101-4-124-35-12-17-15-37-11-58Z"/>
  </g>
  <g opacity=".34" stroke="rgba(20,44,37,.105)" stroke-width=".8">
    <path d="M421 44C463 104 448 163 393 210C338 257 244 271 199 328C155 384 187 464 263 536"/>
    <path d="M514 40C540 111 510 181 442 233C374 285 306 299 282 351C259 404 302 474 386 542"/>
    <path d="M617 49C619 125 571 197 495 249C419 300 365 331 363 385C361 440 420 498 518 548"/>
    <path d="M716 68C693 141 631 204 550 254C469 303 431 349 456 406C480 461 552 510 649 554"/>
  </g>
</svg>
